<svg width="300" height="300" viewBox="0 0 300 300" fill="none" xmlns="http://www.w3.org/2000/svg">
<rect width="300" height="300" rx="75" fill="white"/>
<path d="M191.066 261.045C180.118 251.627 165.926 245.875 150.394 245.694C150.142 245.691 149.89 245.689 149.638 245.689C133.81 245.689 119.335 251.474 108.209 261.045C95.1005 256.53 82.9617 249.931 72.1885 241.645C77.6428 235.401 83.84 229.823 90.6421 225.048C107.341 213.326 127.686 206.445 149.638 206.445C153.21 206.445 156.741 206.628 160.219 206.983C178.731 208.876 195.788 215.681 210.066 226.072C216.307 230.615 222.018 235.843 227.087 241.645C216.314 249.931 204.175 256.53 191.066 261.045H191.066Z" fill="#4265D6"/>
<path d="M62.4088 194.003C53.4696 178.431 49 160.745 49 140.945C49 121.144 53.4696 103.41 62.4088 87.7422C71.3479 72.0746 83.6513 59.8672 99.3189 51.1203C114.986 42.3734 132.432 38 151.656 38C174.341 38 194.045 43.5268 210.77 54.5806C227.495 65.6344 239.029 81.1579 245.373 101.151H245.373H245.373H198.947C194.334 92.6923 187.99 86.2521 179.916 81.8306C171.842 77.4091 162.422 75.1984 151.656 75.1984C139.737 75.1984 129.164 77.8897 119.937 83.2725C110.709 88.6552 103.5 96.3448 98.3096 106.341C93.1191 116.338 90.5239 127.872 90.5239 140.945C90.5239 154.401 93.1672 166.128 98.4538 176.125C103.74 186.121 111.094 193.811 120.513 199.193C106.532 203.066 91.9063 208.49 80.6009 216.961C73.4809 210.38 67.4169 202.727 62.4088 194.003V194.003Z" fill="#4265D6"/>
<path d="M184.849 199.481C187.068 198.16 189.172 196.67 191.162 195.012C200.966 186.842 207.406 175.452 210.482 160.841H141.275V129.987H250.276V165.167C247.584 179.2 241.817 192.177 232.974 204.095C229.184 209.204 224.925 213.88 220.199 218.124C209.709 209.988 197.776 203.625 184.849 199.481H184.849Z" fill="#4265D6"/>
</svg>
