<?xml version="1.0"?>
<svg xmlns="http://www.w3.org/2000/svg" xmlns:xlink="http://www.w3.org/1999/xlink" xmlns:svgjs="http://svgjs.com/svgjs" version="1.1" width="256" height="256" x="0" y="0" viewBox="0 0 24 24" style="enable-background:new 0 0 512 512" xml:space="preserve"><g><path d="m7.5 13a4.5 4.5 0 1 1 4.5-4.5 4.505 4.505 0 0 1 -4.5 4.5zm0-6a1.5 1.5 0 1 0 1.5 1.5 1.5 1.5 0 0 0 -1.5-1.5zm7.5 15.5a7.5 7.5 0 0 0 -15 0 1.5 1.5 0 0 0 3 0 4.5 4.5 0 0 1 9 0 1.5 1.5 0 0 0 3 0zm9-4.5a7 7 0 0 0 -11.455-5.4 1.5 1.5 0 1 0 1.91 2.314 3.951 3.951 0 0 1 2.545-.914 4 4 0 0 1 4 4 1.5 1.5 0 0 0 3 0zm-6.5-9a4.5 4.5 0 1 1 4.5-4.5 4.505 4.505 0 0 1 -4.5 4.5zm0-6a1.5 1.5 0 1 0 1.5 1.5 1.5 1.5 0 0 0 -1.5-1.5z" fill="#ffffff" data-original="#000000"/></g></svg>
