<svg width="26" height="25" viewBox="0 0 26 25" fill="none" xmlns="http://www.w3.org/2000/svg">
<path d="M8.43068 13.9134C7.49633 13.9134 6.58296 13.649 5.80607 13.1535C5.02919 12.658 4.42368 11.9538 4.06612 11.1299C3.70856 10.306 3.615 9.39934 3.79729 8.52467C3.97957 7.65 4.4295 6.84656 5.09019 6.21595C5.75088 5.58535 6.59264 5.1559 7.50904 4.98191C8.42544 4.80793 9.37531 4.89723 10.2385 5.23851C11.1018 5.57979 11.8396 6.15773 12.3587 6.89924C12.8778 7.64075 13.1548 8.51254 13.1548 9.40435C13.1535 10.5998 12.6553 11.746 11.7696 12.5913C10.884 13.4366 9.68318 13.9121 8.43068 13.9134ZM8.43068 6.89931C7.9116 6.89931 7.40417 7.04622 6.97257 7.32148C6.54096 7.59674 6.20457 7.98797 6.00592 8.44571C5.80728 8.90345 5.7553 9.40713 5.85657 9.89306C5.95784 10.379 6.2078 10.8253 6.57485 11.1757C6.9419 11.526 7.40955 11.7646 7.91866 11.8613C8.42777 11.9579 8.95548 11.9083 9.43505 11.7187C9.91462 11.5291 10.3245 11.208 10.6129 10.7961C10.9013 10.3841 11.0552 9.8998 11.0552 9.40435C11.0552 8.73997 10.7787 8.1028 10.2865 7.63302C9.79431 7.16323 9.12675 6.89931 8.43068 6.89931ZM16.3043 23.9336V23.4326C16.3043 21.4394 15.4748 19.5279 13.9982 18.1186C12.5216 16.7092 10.5189 15.9175 8.43068 15.9175C6.34247 15.9175 4.33978 16.7092 2.8632 18.1186C1.38661 19.5279 0.557068 21.4394 0.557068 23.4326L0.557068 23.9336C0.557068 24.1993 0.667673 24.4542 0.864552 24.6421C1.06143 24.83 1.32845 24.9356 1.60688 24.9356C1.88531 24.9356 2.15234 24.83 2.34921 24.6421C2.54609 24.4542 2.6567 24.1993 2.6567 23.9336V23.4326C2.6567 21.9709 3.26503 20.5692 4.34786 19.5356C5.43069 18.5021 6.89933 17.9215 8.43068 17.9215C9.96204 17.9215 11.4307 18.5021 12.5135 19.5356C13.5963 20.5692 14.2047 21.9709 14.2047 23.4326V23.9336C14.2047 24.1993 14.3153 24.4542 14.5121 24.6421C14.709 24.83 14.9761 24.9356 15.2545 24.9356C15.5329 24.9356 15.7999 24.83 15.9968 24.6421C16.1937 24.4542 16.3043 24.1993 16.3043 23.9336ZM25.7526 18.9235C25.7526 17.5695 25.3419 16.2444 24.5702 15.1082C23.7985 13.972 22.6988 13.0733 21.4037 12.5206C20.1087 11.9679 18.6737 11.7847 17.272 11.9933C15.8703 12.2019 14.5618 12.7932 13.5044 13.696C13.4003 13.7834 13.3153 13.8896 13.2543 14.0085C13.1934 14.1274 13.1578 14.2566 13.1495 14.3888C13.1412 14.5209 13.1604 14.6533 13.206 14.7783C13.2516 14.9033 13.3228 15.0184 13.4153 15.1171C13.5078 15.2157 13.6198 15.2958 13.745 15.3529C13.8701 15.4099 14.0059 15.4427 14.1444 15.4494C14.2829 15.4561 14.4214 15.4365 14.5519 15.3918C14.6825 15.3471 14.8024 15.2782 14.9049 15.189C15.6602 14.5443 16.5948 14.1221 17.596 13.9732C18.5972 13.8243 19.6221 13.9552 20.547 14.3501C21.472 14.745 22.2574 15.3869 22.8086 16.1984C23.3597 17.0099 23.653 17.9564 23.653 18.9235C23.653 19.1893 23.7636 19.4441 23.9605 19.632C24.1574 19.8199 24.4244 19.9255 24.7028 19.9255C24.9812 19.9255 25.2483 19.8199 25.4451 19.632C25.642 19.4441 25.7526 19.1893 25.7526 18.9235ZM18.9288 9.90535C17.9945 9.90535 17.0811 9.6409 16.3042 9.14544C15.5273 8.64998 14.9218 7.94575 14.5643 7.12183C14.2067 6.2979 14.1132 5.39128 14.2954 4.51661C14.4777 3.64193 14.9277 2.83849 15.5883 2.20789C16.249 1.57728 17.0908 1.14783 18.0072 0.97385C18.9236 0.799866 19.8735 0.889161 20.7367 1.23044C21.5999 1.57172 22.3377 2.14966 22.8568 2.89118C23.3759 3.63269 23.653 4.50447 23.653 5.39628C23.6516 6.59176 23.1534 7.73788 22.2678 8.58321C21.3821 9.42854 20.1813 9.90403 18.9288 9.90535ZM18.9288 2.89124C18.4097 2.89124 17.9023 3.03816 17.4707 3.31342C17.0391 3.58867 16.7027 3.97991 16.5041 4.43764C16.3054 4.89538 16.2535 5.39906 16.3547 5.88499C16.456 6.37092 16.706 6.81728 17.073 7.16761C17.4401 7.51795 17.9077 7.75653 18.4168 7.85319C18.9259 7.94985 19.4536 7.90024 19.9332 7.71064C20.4128 7.52104 20.8227 7.19996 21.1111 6.78801C21.3994 6.37606 21.5534 5.89173 21.5534 5.39628C21.5534 4.7319 21.2769 4.09474 20.7847 3.62495C20.2925 3.15516 19.6249 2.89124 18.9288 2.89124Z" fill="white"/>
</svg>
