<svg width="200" height="226" viewBox="0 0 200 226" fill="none" xmlns="http://www.w3.org/2000/svg">
<g clip-path="url(#clip0_549_7)">
<path d="M76.6796 138.04C77.8161 140.241 77.6025 142.61 76.2024 143.334C74.8023 144.057 72.746 142.86 71.6095 140.66C71.112 139.696 70.8732 138.701 70.8794 137.825L66.1805 128.442L70.6307 126.331L74.7905 135.805C75.5083 136.306 76.1821 137.077 76.6796 138.04Z" fill="#FFB6B6"/>
<path d="M41.7114 222.702L45.7178 222.702L47.6236 207.248L41.7106 207.249L41.7114 222.702Z" fill="#FFB6B6"/>
<path d="M55.4378 222.611C55.5625 222.821 55.6283 223.499 55.6283 223.744C55.6283 224.494 55.0195 225.103 54.2685 225.103H41.8612C41.3489 225.103 40.9336 224.688 40.9336 224.176V223.659C40.9336 223.659 40.3198 222.107 41.5835 220.193C41.5835 220.193 43.1541 221.691 45.5009 219.345L46.1929 218.091L51.2025 221.755L53.9792 222.096C54.5867 222.171 55.1253 222.085 55.4378 222.611Z" fill="#2F2E41"/>
<path d="M22.9158 222.702L26.9221 222.702L28.828 207.248L22.9149 207.249L22.9158 222.702Z" fill="#FFB6B6"/>
<path d="M36.6421 222.611C36.7669 222.821 36.8327 223.499 36.8327 223.744C36.8327 224.494 36.2239 225.103 35.4729 225.103H23.0656C22.5533 225.103 22.138 224.688 22.138 224.176V223.659C22.138 223.659 21.5242 222.107 22.7879 220.193C22.7879 220.193 24.3584 221.691 26.7053 219.345L27.3973 218.091L32.4069 221.755L35.1836 222.096C35.791 222.171 36.3296 222.085 36.6421 222.611Z" fill="#2F2E41"/>
<path d="M17.2448 131.524L15.557 141.839L20.8079 175.219L22.1206 215.539H29.2099L32.8099 177.47L32.4349 152.34L40.8738 215.914H48.2407L48.9376 136.213L17.2448 131.524Z" fill="#2F2E41"/>
<path d="M26.0588 78.0778H39.3307L50.813 84.8289C49.0259 84.3747 47.6453 100.954 47.5983 115.604C47.5952 116.578 46.6306 117.697 46.6395 118.648C46.6472 119.467 47.6269 120.121 47.6439 120.916C47.6598 121.659 47.6798 122.389 47.7042 123.105C47.7244 123.699 46.6133 124.485 46.6395 125.057C46.673 125.787 47.8456 126.294 47.8892 126.981C48.1569 131.204 48.6183 134.549 49.3127 136.213C49.3127 136.213 19.6827 144.464 17.4323 131.712C17.4323 131.712 17.5608 127.128 17.5428 120.799C17.5412 120.237 17.0629 119.728 17.0588 119.141C17.0558 118.704 17.5275 118.195 17.5229 117.747C17.5191 117.378 17.0638 117.052 17.0588 116.676C17.0559 116.451 17.5037 116.179 17.5003 115.953C17.3204 103.917 16.5122 88.7481 13.6817 84.8289L26.0588 78.0778V78.0778Z" fill="#4265D6"/>
<path d="M39.186 78.0778C39.186 78.0778 47.786 81.203 50.5149 83.6927C51.9649 85.0157 61.6898 109.958 61.6898 109.958L75.1973 133.482L68.1761 136.149L53.8135 114.459L47.4374 100.207L39.186 78.0778Z" fill="#4265D6"/>
<path d="M21.3481 138.931C22.6024 141.066 22.5177 143.444 21.159 144.242C19.8002 145.04 17.6819 143.956 16.4276 141.821C15.8786 140.886 15.5861 139.905 15.5447 139.031L10.3433 129.916L14.6722 127.567L19.3404 136.801C20.0844 137.263 20.799 137.996 21.3481 138.931Z" fill="#FFB6B6"/>
<path d="M24.1835 89.7048L20.4328 81.0783C20.4328 81.0783 11.6188 83.8913 11.6188 88.017C11.6188 88.017 6.36796 119.522 7.11808 127.399L11.9939 136.025L18.9326 130.587L14.6194 120.648L24.1835 89.7048Z" fill="#4265D6"/>
<path d="M16.4699 145.749L20.894 136.963L26.0588 144.089L21.4105 148.59L16.4699 145.749Z" fill="#2F2E41"/>
<path d="M32.5697 75.5996C37.3103 75.5996 41.1533 71.7566 41.1533 67.016C41.1533 62.2754 37.3103 58.4323 32.5697 58.4323C27.8291 58.4323 23.9861 62.2754 23.9861 67.016C23.9861 71.7566 27.8291 75.5996 32.5697 75.5996Z" fill="#FFB6B6"/>
<path d="M39.2631 57.4273C37.7714 56.9496 37.0656 55.1753 35.7012 54.4062C34.1922 53.5556 32.3871 53.0246 30.7231 53.5059C29.7021 53.8012 28.8127 54.4538 27.791 54.7466C27.6124 54.7978 27.4245 54.8331 27.2337 54.8513C26.1349 54.956 25.1916 55.6149 24.6425 56.5724L24.6282 56.5971C24.3058 57.1488 23.8476 57.6057 23.4409 58.0984C21.9569 59.8968 21.1537 62.2339 21.1702 64.5654C21.188 67.0716 22.1523 69.5598 23.8281 71.4235L24.2562 71.2261C25.2907 72.1197 26.3252 73.0133 27.3597 73.9069C26.7967 71.8755 26.2285 69.7729 26.5265 67.6861C26.8246 65.5993 28.2279 63.5173 30.297 63.1144C31.0798 62.9621 31.9053 63.0542 32.6651 62.8122C33.425 62.5702 34.1248 61.7891 33.8642 61.0354C34.3347 62.2793 36.0896 62.2058 37.2974 62.7623C40.0008 64.0078 39.0112 62.083 41.358 63.914C42.1506 59.5208 45.187 59.3246 39.2631 57.4273L39.2631 57.4273Z" fill="#2F2E41"/>
<path d="M0 224.806C0 225.132 0.261311 225.393 0.586713 225.393H199.413C199.739 225.393 200 225.132 200 224.806C200 224.481 199.739 224.22 199.413 224.22H0.586713C0.261311 224.22 0 224.481 0 224.806Z" fill="#CCCCCC"/>
<path d="M173.403 225.393H86.4234C75.8178 225.393 67.1894 216.765 67.1894 206.159V19.234C67.1894 8.6284 75.8178 0 86.4234 0H173.403C184.008 0 192.637 8.6284 192.637 19.234V206.159C192.637 216.765 184.008 225.393 173.403 225.393Z" fill="#3F3D56"/>
<path d="M192.637 68.7571C192.188 68.7571 191.823 69.122 191.823 69.5708V95.609C191.823 96.0577 192.188 96.4227 192.637 96.4227C193.086 96.4227 193.45 96.0577 193.45 95.609V69.5708C193.45 69.122 193.086 68.7571 192.637 68.7571Z" fill="#3F3D56"/>
<path d="M190.806 19.2342V206.156C190.806 215.387 183.621 222.938 174.536 223.524H174.532C174.398 223.532 174.264 223.54 174.125 223.544C173.885 223.557 173.645 223.561 173.401 223.561C173.401 223.561 172.506 223.495 170.871 223.373C169.219 223.251 166.814 223.068 163.816 222.828C162.917 222.759 161.969 222.682 160.968 222.6C158.974 222.438 156.786 222.259 154.438 222.055C153.502 221.978 152.534 221.893 151.545 221.807C146.492 221.372 140.833 220.863 134.865 220.285C133.856 220.192 132.839 220.094 131.813 219.993C131.545 219.964 131.272 219.94 131 219.911C126.744 219.492 69.0204 208.336 69.0204 206.156V19.2342C69.0204 9.6204 76.8115 1.82928 86.4253 1.82928H96.8161C98.4761 1.82928 99.8105 3.12306 99.9529 4.77892C99.9651 4.88878 99.9773 4.99861 99.9977 5.10847C100.299 6.77248 101.824 7.93198 103.517 7.93198H156.31C158.002 7.93198 159.528 6.77248 159.829 5.10847C159.849 4.99861 159.861 4.88878 159.874 4.77892C160.016 3.12306 161.35 1.82928 163.01 1.82928H173.401C183.015 1.82928 190.806 9.6204 190.806 19.2342Z" fill="white"/>
<path d="M66.7826 49.2285C66.3339 49.2285 65.9689 49.5934 65.9689 50.0422V56.5517C65.9689 57.0005 66.3339 57.3654 66.7826 57.3654C67.2314 57.3654 67.5963 57.0005 67.5963 56.5517V50.0422C67.5963 49.5934 67.2314 49.2285 66.7826 49.2285Z" fill="#3F3D56"/>
<path d="M66.7826 68.7571C66.3339 68.7571 65.9689 69.122 65.9689 69.5708V82.183C65.9689 82.6318 66.3339 82.9967 66.7826 82.9967C67.2314 82.9967 67.5963 82.6318 67.5963 82.183V69.5708C67.5963 69.122 67.2314 68.7571 66.7826 68.7571Z" fill="#3F3D56"/>
<path d="M66.7826 86.6584C66.3339 86.6584 65.9689 87.0233 65.9689 87.472V100.084C65.9689 100.533 66.3339 100.898 66.7826 100.898C67.2314 100.898 67.5963 100.533 67.5963 100.084V87.472C67.5963 87.0233 67.2314 86.6584 66.7826 86.6584Z" fill="#3F3D56"/>
<path d="M96.5329 4.6788H80.9718C80.8873 4.6788 80.8188 4.74727 80.8188 4.83174V6.5601C80.8188 6.64456 80.8873 6.71304 80.9718 6.71304H96.5329C96.6174 6.71304 96.6858 6.64456 96.6858 6.5601V4.83174C96.6858 4.74727 96.6174 4.6788 96.5329 4.6788Z" fill="#E6E6E6"/>
<path d="M165.581 6.71302C166.48 6.71302 167.209 5.98442 167.209 5.08564C167.209 4.18686 166.48 3.45825 165.581 3.45825C164.683 3.45825 163.954 4.18686 163.954 5.08564C163.954 5.98442 164.683 6.71302 165.581 6.71302Z" fill="#E6E6E6"/>
<path d="M170.057 6.71302C170.956 6.71302 171.684 5.98442 171.684 5.08564C171.684 4.18686 170.956 3.45825 170.057 3.45825C169.158 3.45825 168.429 4.18686 168.429 5.08564C168.429 5.98442 169.158 6.71302 170.057 6.71302Z" fill="#E6E6E6"/>
<path d="M174.532 6.71302C175.431 6.71302 176.159 5.98442 176.159 5.08564C176.159 4.18686 175.431 3.45825 174.532 3.45825C173.633 3.45825 172.905 4.18686 172.905 5.08564C172.905 5.98442 173.633 6.71302 174.532 6.71302Z" fill="#E6E6E6"/>
<path d="M164.424 46.9145H95.4024C94.315 46.9145 93.4304 46.0298 93.4304 44.9424C93.4304 43.855 94.315 42.9704 95.4024 42.9704H164.424C165.511 42.9704 166.396 43.855 166.396 44.9424C166.396 46.0298 165.511 46.9145 164.424 46.9145Z" fill="#E6E6E6"/>
<path d="M176.03 202.953H150.393C149.306 202.953 148.421 202.068 148.421 200.981C148.421 199.893 149.306 199.008 150.393 199.008H176.03C177.117 199.008 178.002 199.893 178.002 200.981C178.002 202.068 177.117 202.953 176.03 202.953Z" fill="#E6E6E6"/>
<path d="M107.501 202.953H81.8645C80.7771 202.953 79.8924 202.068 79.8924 200.981C79.8924 199.893 80.7771 199.008 81.8645 199.008H107.501C108.588 199.008 109.473 199.893 109.473 200.981C109.473 202.068 108.588 202.953 107.501 202.953Z" fill="#E6E6E6"/>
<path d="M178.002 52.2134H81.8246V52.7064H178.002V52.2134Z" fill="#3F3D56"/>
<path d="M164.424 76.9882H95.4024C94.315 76.9882 93.4304 76.1035 93.4304 75.0161C93.4304 73.9287 94.315 73.0441 95.4024 73.0441H164.424C165.511 73.0441 166.396 73.9287 166.396 75.0161C166.396 76.1035 165.511 76.9882 164.424 76.9882Z" fill="#E6E6E6"/>
<path d="M178.002 82.2871H81.8246V82.7801H178.002V82.2871Z" fill="#3F3D56"/>
<path d="M164.424 107.062H95.4024C94.315 107.062 93.4304 106.177 93.4304 105.09C93.4304 104.002 94.315 103.118 95.4024 103.118H164.424C165.511 103.118 166.396 104.002 166.396 105.09C166.396 106.177 165.511 107.062 164.424 107.062Z" fill="#E6E6E6"/>
<path d="M178.002 112.361H81.8246V112.854H178.002V112.361Z" fill="#3F3D56"/>
<path d="M178.002 137.997H81.8246V138.49H178.002V137.997Z" fill="#3F3D56"/>
<path d="M178.002 163.634H81.8246V164.127H178.002V163.634Z" fill="#3F3D56"/>
<path d="M130.59 181.668C146.382 181.668 159.185 168.865 159.185 153.073C159.185 137.281 146.382 124.478 130.59 124.478C114.798 124.478 101.995 137.281 101.995 153.073C101.995 168.865 114.798 181.668 130.59 181.668Z" fill="#4265D6"/>
</g>
<defs>
<clipPath id="clip0_549_7">
<rect width="200" height="225.393" fill="white"/>
</clipPath>
</defs>
</svg>
