<svg width="493" height="555" viewBox="0 0 493 555" fill="none" xmlns="http://www.w3.org/2000/svg">
<path d="M0 553.555C0 554.357 0.643443 555 1.4447 555H491.028C491.829 555 492.473 554.357 492.473 553.555C492.473 552.754 491.829 552.111 491.028 552.111H1.4447C0.643443 552.111 0 552.754 0 553.555Z" fill="#CCCCCC"/>
<path d="M426.981 555H212.806C186.691 555 165.445 533.754 165.445 507.638V47.3612C165.445 21.2463 186.691 0 212.806 0H426.981C453.096 0 474.342 21.2463 474.342 47.3612V507.638C474.342 533.754 453.096 555 426.981 555Z" fill="#3F3D56"/>
<path d="M474.341 169.305C473.236 169.305 472.338 170.204 472.338 171.309V235.424C472.338 236.529 473.236 237.428 474.341 237.428C475.447 237.428 476.345 236.529 476.345 235.424V171.309C476.345 170.204 475.447 169.305 474.341 169.305Z" fill="#3F3D56"/>
<path d="M469.834 47.3617V507.631C469.834 530.362 452.143 548.955 429.772 550.398H429.762C429.432 550.418 429.101 550.438 428.76 550.448C428.169 550.478 427.578 550.488 426.977 550.488C426.977 550.488 424.773 550.328 420.746 550.027C416.679 549.726 410.758 549.276 403.375 548.685C401.161 548.514 398.826 548.324 396.362 548.124C391.453 547.723 386.063 547.282 380.283 546.781C377.979 546.591 375.595 546.38 373.16 546.17C360.718 545.098 346.783 543.846 332.086 542.423C329.602 542.193 327.097 541.952 324.573 541.702C323.912 541.632 323.24 541.572 322.569 541.502C312.09 540.47 169.954 513 169.954 507.631V47.3617C169.954 23.6891 189.138 4.50452 212.811 4.50452H238.397C242.484 4.50452 245.77 7.69025 246.121 11.7676C246.151 12.0381 246.181 12.3085 246.231 12.5791C246.972 16.6765 250.729 19.5316 254.897 19.5316H384.891C389.059 19.5316 392.816 16.6765 393.557 12.5791C393.607 12.3085 393.637 12.0381 393.667 11.7676C394.018 7.69025 397.304 4.50452 401.391 4.50452H426.977C450.65 4.50452 469.834 23.6891 469.834 47.3617Z" fill="white"/>
<path d="M164.444 121.219C163.339 121.219 162.44 122.117 162.44 123.222V139.251C162.44 140.356 163.339 141.255 164.444 141.255C165.549 141.255 166.447 140.356 166.447 139.251V123.222C166.447 122.117 165.549 121.219 164.444 121.219Z" fill="#3F3D56"/>
<path d="M164.444 169.305C163.339 169.305 162.44 170.204 162.44 171.309V202.364C162.44 203.469 163.339 204.368 164.444 204.368C165.549 204.368 166.447 203.469 166.447 202.364V171.309C166.447 170.204 165.549 169.305 164.444 169.305Z" fill="#3F3D56"/>
<path d="M164.444 213.384C163.339 213.384 162.44 214.283 162.44 215.388V246.444C162.44 247.549 163.339 248.447 164.444 248.447C165.549 248.447 166.447 247.549 166.447 246.444V215.388C166.447 214.283 165.549 213.384 164.444 213.384Z" fill="#3F3D56"/>
<path d="M237.699 11.5208H199.382C199.174 11.5208 199.005 11.6894 199.005 11.8973V16.1532C199.005 16.3612 199.174 16.5298 199.382 16.5298H237.699C237.907 16.5298 238.076 16.3612 238.076 16.1532V11.8973C238.076 11.6894 237.907 11.5208 237.699 11.5208Z" fill="#E6E6E6"/>
<path d="M407.722 16.5299C409.935 16.5299 411.729 14.7358 411.729 12.5227C411.729 10.3096 409.935 8.5155 407.722 8.5155C405.509 8.5155 403.715 10.3096 403.715 12.5227C403.715 14.7358 405.509 16.5299 407.722 16.5299Z" fill="#E6E6E6"/>
<path d="M418.742 16.5299C420.955 16.5299 422.749 14.7358 422.749 12.5227C422.749 10.3096 420.955 8.5155 418.742 8.5155C416.529 8.5155 414.735 10.3096 414.735 12.5227C414.735 14.7358 416.529 16.5299 418.742 16.5299Z" fill="#E6E6E6"/>
<path d="M429.762 16.5299C431.975 16.5299 433.769 14.7358 433.769 12.5227C433.769 10.3096 431.975 8.5155 429.762 8.5155C427.548 8.5155 425.754 10.3096 425.754 12.5227C425.754 14.7358 427.548 16.5299 429.762 16.5299Z" fill="#E6E6E6"/>
<path d="M188.813 339.906C191.612 345.324 191.086 351.159 187.638 352.94C184.191 354.721 179.127 351.773 176.329 346.356C175.103 343.984 174.516 341.533 174.531 339.376L162.96 316.272L173.918 311.073L184.161 334.401C185.929 335.637 187.588 337.535 188.813 339.906Z" fill="#FFB6B6"/>
<path d="M102.709 548.374L112.574 548.373L117.267 510.321L102.707 510.322L102.709 548.374Z" fill="#FFB6B6"/>
<path d="M136.508 548.15C136.815 548.667 136.977 550.337 136.977 550.939C136.977 552.788 135.478 554.287 133.629 554.287H103.077C101.816 554.287 100.793 553.264 100.793 552.003V550.731C100.793 550.731 99.2819 546.908 102.393 542.196C102.393 542.196 106.261 545.885 112.04 540.107L113.744 537.02L126.079 546.041L132.916 546.883C134.412 547.067 135.738 546.854 136.508 548.15Z" fill="#2F2E41"/>
<path d="M56.4268 548.374L66.292 548.373L70.9849 510.321L56.4248 510.322L56.4268 548.374Z" fill="#FFB6B6"/>
<path d="M90.2257 548.15C90.5329 548.667 90.695 550.337 90.695 550.939C90.695 552.788 89.1959 554.287 87.3467 554.287H56.7954C55.5339 554.287 54.5113 553.264 54.5113 552.003V550.731C54.5113 550.731 52.9999 546.908 56.1115 542.196C56.1115 542.196 59.9788 545.885 65.7575 540.107L67.4616 537.02L79.797 546.041L86.6342 546.883C88.1301 547.067 89.4563 546.854 90.2257 548.15Z" fill="#2F2E41"/>
<path d="M42.4626 323.861L38.3066 349.259L51.2362 431.454L54.4686 530.735H71.9251L80.7896 436.995L79.8661 375.118L100.646 531.658H118.786L120.502 335.405L42.4626 323.861Z" fill="#2F2E41"/>
<path d="M64.1661 192.256H96.8465L125.12 208.88C120.719 207.762 117.32 248.587 117.204 284.66C117.197 287.057 114.821 289.813 114.843 292.154C114.862 294.171 117.275 295.783 117.317 297.74C117.356 299.569 117.405 301.368 117.465 303.129C117.515 304.591 114.779 306.529 114.843 307.936C114.926 309.733 117.813 310.981 117.92 312.673C118.58 323.071 119.716 331.31 121.426 335.405C121.426 335.405 48.4659 355.723 42.9246 324.323C42.9246 324.323 43.2411 313.037 43.1967 297.451C43.1927 296.068 42.015 294.814 42.005 293.368C41.9975 292.293 43.159 291.04 43.1476 289.935C43.1383 289.027 42.0171 288.224 42.005 287.298C41.9977 286.746 43.1003 286.076 43.092 285.518C42.6489 255.881 40.659 218.53 33.6892 208.88L64.1661 192.256V192.256Z" fill="#4265D6"/>
<path d="M96.4902 192.256C96.4902 192.256 117.667 199.952 124.386 206.082C127.957 209.34 151.903 270.757 151.903 270.757L185.163 328.681L167.874 335.248L132.508 281.84L116.808 246.745L96.4902 192.256Z" fill="#4265D6"/>
<path d="M52.5668 342.098C55.6554 347.356 55.4469 353.211 52.1012 355.177C48.7555 357.142 43.5394 354.473 40.4508 349.216C39.0988 346.914 38.3787 344.499 38.2768 342.344L25.469 319.902L36.1285 314.116L47.6231 336.854C49.4551 337.992 51.2148 339.797 52.5668 342.098Z" fill="#FFB6B6"/>
<path d="M59.5485 220.886L50.3131 199.645C50.3131 199.645 28.6098 206.571 28.6098 216.73C28.6098 216.73 15.6802 294.308 17.5273 313.702L29.5333 334.944L46.6189 321.552L35.9981 297.078L59.5485 220.886Z" fill="#4265D6"/>
<path d="M40.5552 358.887L51.449 337.253L64.1665 354.8L52.7208 365.882L40.5552 358.887Z" fill="#2F2E41"/>
<path d="M80.1985 186.154C91.8716 186.154 101.335 176.691 101.335 165.018C101.335 153.345 91.8716 143.882 80.1985 143.882C68.5254 143.882 59.0625 153.345 59.0625 165.018C59.0625 176.691 68.5254 186.154 80.1985 186.154Z" fill="#FFB6B6"/>
<path d="M96.6799 141.407C93.007 140.231 91.2691 135.862 87.9093 133.968C84.1937 131.874 79.7487 130.566 75.6514 131.751C73.1375 132.478 70.9472 134.085 68.4315 134.806C67.9917 134.933 67.529 135.019 67.0593 135.064C64.3537 135.322 62.0309 136.945 60.6788 139.302L60.6435 139.363C59.8497 140.721 58.7214 141.846 57.72 143.06C54.0659 147.488 52.0881 153.243 52.1288 158.984C52.1725 165.155 54.547 171.282 58.6734 175.871L59.7275 175.385C62.2748 177.585 64.8221 179.786 67.3695 181.986C65.9832 176.984 64.584 171.807 65.3179 166.668C66.0518 161.53 69.5073 156.403 74.6022 155.411C76.5297 155.036 78.5625 155.263 80.4334 154.667C82.3044 154.071 84.0278 152.148 83.3859 150.292C84.5444 153.355 88.8657 153.174 91.8399 154.544C98.4966 157.611 96.0598 152.871 101.838 157.38C103.79 146.562 111.267 146.079 96.68 141.407L96.6799 141.407Z" fill="#2F2E41"/>
<path d="M299.506 270.663H305.065V292.493H299.506V289.734C298.799 290.68 297.874 291.423 296.732 291.962C295.587 292.501 294.345 292.771 293.007 292.771C291.298 292.771 289.787 292.409 288.473 291.684C287.16 290.962 286.13 289.899 285.384 288.495C284.635 287.087 284.26 285.411 284.26 283.467V270.663H289.776V282.679C289.776 284.416 290.209 285.75 291.074 286.682C291.943 287.614 293.125 288.08 294.62 288.08C296.147 288.08 297.343 287.614 298.209 286.682C299.074 285.75 299.506 284.416 299.506 282.679V270.663ZM330.798 281.102C330.798 281.891 330.744 282.6 330.635 283.23H314.679C314.809 284.806 315.361 286.043 316.334 286.939C317.308 287.829 318.502 288.274 319.917 288.274C321.966 288.274 323.425 287.395 324.294 285.637H330.241C329.611 287.738 328.402 289.465 326.616 290.817C324.83 292.169 322.637 292.845 320.038 292.845C317.937 292.845 316.052 292.379 314.385 291.447C312.714 290.516 311.413 289.195 310.481 287.486C309.55 285.78 309.084 283.812 309.084 281.581C309.084 279.321 309.543 277.337 310.46 275.628C311.382 273.919 312.669 272.605 314.322 271.688C315.979 270.766 317.884 270.306 320.038 270.306C322.112 270.306 323.97 270.754 325.612 271.651C327.255 272.541 328.53 273.807 329.437 275.449C330.344 277.092 330.798 278.976 330.798 281.102M314.716 279.526H325.082C325.054 278.111 324.541 276.976 323.542 276.122C322.544 275.267 321.324 274.84 319.881 274.84C318.515 274.84 317.366 275.253 316.434 276.08C315.499 276.906 314.926 278.055 314.716 279.526V279.526ZM343.165 292.845C341.379 292.845 339.777 292.524 338.358 291.883C336.94 291.239 335.817 290.365 334.99 289.262C334.164 288.158 333.71 286.936 333.63 285.594H339.188C339.293 286.439 339.707 287.136 340.428 287.685C341.15 288.239 342.05 288.516 343.129 288.516C344.179 288.516 345.001 288.304 345.593 287.88C346.181 287.463 346.475 286.925 346.475 286.267C346.475 285.556 346.115 285.024 345.393 284.67C344.671 284.316 343.523 283.929 341.946 283.509C340.318 283.116 338.985 282.708 337.948 282.285C336.908 281.864 336.015 281.222 335.269 280.356C334.519 279.491 334.145 278.323 334.145 276.852C334.145 275.64 334.493 274.537 335.19 273.542C335.884 272.544 336.882 271.756 338.185 271.178C339.484 270.597 341.013 270.306 342.771 270.306C345.374 270.306 347.449 270.957 348.997 272.26C350.549 273.56 351.403 275.313 351.561 277.519H346.281C346.204 276.654 345.843 275.964 345.199 275.449C344.554 274.938 343.694 274.682 342.619 274.682C341.617 274.682 340.848 274.866 340.313 275.234C339.773 275.602 339.503 276.115 339.503 276.773C339.503 277.509 339.871 278.066 340.607 278.444C341.342 278.826 342.484 279.215 344.032 279.61C345.608 280.003 346.91 280.409 347.936 280.829C348.959 281.25 349.845 281.899 350.594 282.778C351.344 283.661 351.731 284.824 351.755 286.267C351.755 287.528 351.409 288.657 350.715 289.656C350.018 290.654 349.02 291.435 347.72 291.999C346.421 292.563 344.903 292.845 343.165 292.845ZM367.596 275.197H362.715V285.757C362.715 286.493 362.892 287.023 363.245 287.349C363.599 287.678 364.196 287.843 365.037 287.843H367.596V292.493H364.128C359.48 292.493 357.156 290.234 357.156 285.715V275.197H354.556V270.663H357.156V265.268H362.715V270.663H367.596V275.197ZM375.755 277.283C373.128 275.917 371.814 273.803 371.814 270.942C371.814 269.523 372.175 268.229 372.897 267.059C373.618 265.889 374.709 264.956 376.17 264.259C377.627 263.562 379.406 263.213 381.508 263.213C383.609 263.213 385.388 263.562 386.845 264.259C388.303 264.956 389.394 265.889 390.119 267.059C390.84 268.229 391.201 269.523 391.201 270.942C391.201 272.385 390.845 273.651 390.134 274.74C389.427 275.833 388.481 276.681 387.297 277.283C388.744 277.913 389.875 278.833 390.691 280.041C391.504 281.25 391.91 282.682 391.91 284.339C391.91 286.125 391.457 287.68 390.549 289.004C389.642 290.332 388.401 291.351 386.824 292.062C385.248 292.769 383.476 293.123 381.508 293.123C379.536 293.123 377.769 292.769 376.207 292.062C374.644 291.351 373.41 290.332 372.503 289.004C371.595 287.68 371.142 286.125 371.142 284.339C371.142 282.682 371.55 281.243 372.366 280.02C373.179 278.801 374.308 277.889 375.755 277.283M385.842 271.73C385.842 270.441 385.455 269.441 384.681 268.73C383.903 268.022 382.846 267.669 381.508 267.669C380.194 267.669 379.15 268.022 378.376 268.73C377.599 269.441 377.21 270.453 377.21 271.766C377.21 272.95 377.611 273.896 378.413 274.604C379.215 275.315 380.247 275.67 381.508 275.67C382.769 275.67 383.805 275.308 384.618 274.582C385.434 273.861 385.842 272.91 385.842 271.73M381.508 279.684C380.012 279.684 378.797 280.066 377.861 280.829C376.93 281.593 376.464 282.684 376.464 284.102C376.464 285.416 376.918 286.486 377.825 287.312C378.728 288.139 379.956 288.552 381.508 288.552C383.056 288.552 384.278 288.132 385.175 287.291C386.064 286.451 386.509 285.388 386.509 284.102C386.509 282.708 386.05 281.624 385.133 280.85C384.212 280.073 383.003 279.684 381.508 279.684V279.684Z" fill="#272727"/>
<path d="M271.195 295.847C269.485 294.376 267.267 293.477 264.841 293.449C264.802 293.448 264.762 293.448 264.723 293.448C262.25 293.448 259.988 294.352 258.25 295.847C256.202 295.142 254.306 294.111 252.623 292.816C253.475 291.841 254.443 290.969 255.506 290.223C258.115 288.392 261.293 287.317 264.723 287.317C265.281 287.317 265.832 287.345 266.376 287.401C269.268 287.697 271.933 288.76 274.164 290.383C275.139 291.093 276.031 291.91 276.823 292.816C275.14 294.111 273.243 295.142 271.195 295.847H271.195Z" fill="#4265D6"/>
<path d="M251.095 285.373C249.698 282.94 249 280.177 249 277.083C249 273.99 249.698 271.219 251.095 268.771C252.491 266.324 254.414 264.416 256.861 263.05C259.309 261.683 262.035 261 265.038 261C268.582 261 271.661 261.863 274.274 263.59C276.887 265.317 278.689 267.743 279.68 270.866H279.68H279.68H272.427C271.706 269.545 270.715 268.539 269.453 267.848C268.192 267.157 266.72 266.812 265.038 266.812C263.176 266.812 261.524 267.232 260.083 268.073C258.641 268.914 257.515 270.115 256.704 271.677C255.893 273.239 255.487 275.041 255.487 277.083C255.487 279.186 255.9 281.018 256.726 282.58C257.552 284.141 258.701 285.343 260.173 286.184C257.988 286.789 255.703 287.636 253.937 288.96C252.825 287.931 251.877 286.736 251.095 285.373V285.373Z" fill="#4265D6"/>
<path d="M270.224 286.229C270.571 286.022 270.9 285.79 271.21 285.531C272.742 284.254 273.748 282.475 274.229 280.192H263.417V275.371H280.446V280.868C280.025 283.06 279.124 285.088 277.743 286.95C277.151 287.748 276.485 288.478 275.747 289.141C274.108 287.87 272.244 286.876 270.224 286.229H270.224Z" fill="#4265D6"/>
</svg>
