<svg width="195" height="223" viewBox="0 0 195 223" fill="none" xmlns="http://www.w3.org/2000/svg">
<path d="M93.4696 208.83L93.2214 203.245C93.1956 203.232 93.1697 203.218 93.1439 203.204C90.484 201.808 87.4356 204.336 88.2852 207.219C89.0845 209.931 89.6216 212.856 91.0848 215.23C91.9493 216.609 93.1128 217.776 94.4892 218.643C95.8656 219.511 97.4195 220.058 99.0358 220.244L102.415 222.314C102.879 219.727 102.777 217.071 102.115 214.527C101.454 211.984 100.25 209.614 98.5856 207.582C97.6405 206.451 96.5568 205.443 95.3602 204.583C94.5508 206.718 93.4696 208.83 93.4696 208.83Z" fill="#F2F2F2"/>
<path d="M63.2144 152.154C56.7084 145.44 47.2803 141.589 37.3476 141.589L36.9645 141.59C30.422 141.593 23.9964 139.856 18.3446 136.559L17.7565 136.216L18.2302 135.728C20.7946 133.073 22.9359 130.039 24.5791 126.733C23.412 127.822 22.0202 128.641 20.5019 129.131C18.9836 129.622 17.3761 129.773 15.7932 129.573C14.1219 129.374 12.5175 128.798 11.1002 127.89C9.68294 126.982 8.48962 125.764 7.60977 124.328C4.13819 118.692 0 110.695 0 104.602C0.00540406 99.4525 1.08298 94.3604 3.16404 89.6505C5.24511 84.9406 8.28401 80.7163 12.087 77.2466C14.4947 75.0743 16.4178 72.4187 17.7309 69.4528C19.0441 66.487 19.7178 63.2775 19.7082 60.0336L19.7063 59.572C19.7057 55.3012 20.2272 51.0464 21.2594 46.9023L21.3642 46.4839L21.7945 46.4989C24.5692 46.5934 27.3454 46.3607 30.0657 45.8056C27.5141 45.4924 25.0179 44.828 22.6479 43.8314L22.185 43.644L22.3421 43.1694C33.171 36.4603 57.615 39.9346 71.803 7.45294C83.3076 -18.8853 123.9 30.8334 123.9 59.572C123.9 62.5044 120.999 66.3795 123.17 68.3177C146.641 89.2697 130.447 102.724 125.341 116.262C124.129 119.474 126.756 123 126.756 126.475C126.756 127.065 126.741 127.673 126.711 128.284L126.666 129.223L125.884 128.702C124.335 127.687 122.9 126.51 121.603 125.189C122.949 128.288 123.583 131.65 123.459 135.027C123.335 138.404 122.456 141.71 120.887 144.703C118.427 149.348 116.047 152.673 113.814 154.586C106.66 160.712 97.4371 163.872 88.0317 163.42C78.6263 162.968 69.7487 158.938 63.2144 152.154Z" fill="#E6E6E6"/>
<path d="M102.509 222.038C102.669 222.038 102.823 221.98 102.944 221.875C103.064 221.77 103.143 221.625 103.166 221.467C103.194 221.268 105.961 201.304 103.476 174.771C101.182 150.268 93.813 114.973 71.74 85.9868C71.6871 85.9172 71.6211 85.8587 71.5456 85.8147C71.4701 85.7706 71.3867 85.7419 71.3001 85.7302C71.2135 85.7184 71.1255 85.7238 71.041 85.7462C70.9565 85.7685 70.8773 85.8072 70.8078 85.8602C70.7383 85.9132 70.6799 85.9794 70.636 86.055C70.592 86.1306 70.5635 86.2141 70.5518 86.3007C70.5402 86.3874 70.5457 86.4755 70.5681 86.56C70.5906 86.6445 70.6294 86.7237 70.6824 86.7932C92.5649 115.529 99.8739 150.565 102.152 174.895C104.622 201.274 101.878 221.082 101.85 221.279C101.836 221.374 101.843 221.47 101.87 221.561C101.897 221.653 101.944 221.737 102.006 221.809C102.069 221.881 102.146 221.939 102.232 221.978C102.319 222.018 102.413 222.038 102.509 222.038V222.038Z" fill="#3F3D56"/>
<path d="M84.4957 126.874C84.6361 126.874 84.7729 126.829 84.8866 126.747C85.0002 126.664 85.0849 126.548 85.1283 126.414C85.1718 126.281 85.1718 126.137 85.1285 126.003C85.0851 125.87 85.0006 125.753 84.887 125.67C84.8069 125.612 76.7319 119.79 64.66 115.367C53.5004 111.279 36.5305 107.573 19.0603 113.137C18.977 113.163 18.8997 113.206 18.8329 113.262C18.766 113.318 18.7109 113.387 18.6707 113.465C18.6305 113.542 18.606 113.627 18.5986 113.714C18.5912 113.801 18.601 113.889 18.6275 113.972C18.654 114.056 18.6966 114.133 18.753 114.2C18.8094 114.267 18.8784 114.322 18.956 114.362C19.0337 114.402 19.1185 114.426 19.2055 114.434C19.2926 114.441 19.3803 114.431 19.4635 114.404C36.5757 108.955 53.238 112.6 64.2028 116.617C76.1025 120.976 84.0267 126.689 84.1054 126.747C84.2187 126.829 84.3554 126.874 84.4957 126.874Z" fill="#3F3D56"/>
<path d="M114.921 51.0478C114.931 50.9077 114.897 50.7679 114.823 50.6486C114.749 50.5292 114.639 50.4363 114.509 50.3833C114.379 50.3304 114.235 50.3199 114.099 50.3536C113.963 50.3872 113.84 50.4632 113.75 50.5706C113.686 50.6464 107.301 58.2861 102.023 70.0158C97.1446 80.859 92.2283 97.5284 96.5159 115.365C96.5571 115.536 96.6647 115.684 96.8151 115.777C96.9654 115.869 97.1462 115.897 97.3176 115.856C97.489 115.815 97.637 115.707 97.729 115.557C97.8211 115.406 97.8496 115.225 97.8084 115.054C93.609 97.5828 98.4421 81.2159 103.236 70.562C108.438 58.9998 114.704 51.5026 114.766 51.4282C114.857 51.321 114.911 51.1878 114.921 51.0478V51.0478Z" fill="#3F3D56"/>
<path d="M114.021 85.3474C114.582 89.8755 117.718 93.6089 122.278 93.6089C124.468 93.6089 126.568 92.7385 128.116 91.1892C129.664 89.6398 130.534 87.5385 130.534 85.3474C130.534 80.7847 126.818 77.5077 122.278 77.0858C117.46 76.6382 113.301 79.5339 114.021 85.3474Z" fill="#2F2E41"/>
<path d="M126.102 218.4L129.246 218.399L130.742 206.264L126.101 206.265L126.102 218.4Z" fill="#FFB6B6"/>
<path d="M125.991 221.682L135.66 221.681V221.559C135.66 220.56 135.263 219.602 134.558 218.896C133.852 218.19 132.895 217.793 131.897 217.793H131.896L130.13 216.453L126.835 217.794L125.991 217.794L125.991 221.682Z" fill="#2F2E41"/>
<path d="M113.717 218.4L116.861 218.399L118.357 206.264L113.717 206.265L113.717 218.4Z" fill="#FFB6B6"/>
<path d="M113.607 221.682L123.275 221.681V221.559C123.275 220.56 122.879 219.602 122.173 218.896C121.467 218.19 120.51 217.793 119.512 217.793H119.512L117.746 216.453L114.451 217.794L113.607 217.794L113.607 221.682Z" fill="#2F2E41"/>
<path d="M136.921 142.396L139.144 150.022L136.526 182.32C136.526 182.32 137.874 184.34 136.921 184.34C135.969 184.34 134.747 184.787 135.517 185.993C136.286 187.199 133.656 191.529 133.656 191.529L129.935 214.526L125.194 214.456C125.194 214.456 122.784 213.112 124.137 211.754C125.49 210.395 126.442 210.395 125.172 209.124C123.902 207.853 123.902 208.236 123.902 207.25C123.902 206.264 122.629 194.217 125.647 189.596L124.738 170.755L122.596 189.236L118.186 213.89L113.619 213.853C113.619 213.853 111.509 211.818 111.513 210.312C111.517 208.806 112.817 208.681 111.849 207.791C110.882 206.9 110.882 193.217 113.74 185.611C113.74 185.611 115.357 181.361 113.736 179.905C112.116 178.449 113.734 176.782 113.734 176.782C113.734 176.782 116.301 175.854 113.732 173.179C111.163 170.505 113.718 151.588 113.718 151.588C113.718 151.588 110.91 143.953 113.754 140.95C116.598 137.948 136.921 142.396 136.921 142.396Z" fill="#2F2E41"/>
<path d="M97.3308 155.535L101.297 145.945L104.421 147.682L102.534 157.438C102.723 158.056 102.736 158.714 102.572 159.339C102.407 159.964 102.072 160.531 101.603 160.976C101.134 161.42 100.551 161.725 99.9181 161.856C99.2856 161.988 98.6291 161.939 98.0223 161.718C97.4156 161.496 96.8828 161.109 96.4837 160.601C96.0846 160.093 95.8351 159.483 95.7633 158.841C95.6914 158.198 95.8 157.549 96.0769 156.965C96.3539 156.381 96.7881 155.886 97.3308 155.535V155.535Z" fill="#FFB6B6"/>
<path d="M163.882 79.697L157.847 88.1389L155.197 85.7386L159.244 76.6642C159.2 76.0194 159.337 75.375 159.638 74.8035C159.94 74.2321 160.395 73.7561 160.953 73.4293C161.51 73.1025 162.147 72.9377 162.793 72.9534C163.439 72.9692 164.067 73.1649 164.608 73.5185C165.149 73.8721 165.58 74.3696 165.854 74.9551C166.127 75.5406 166.232 76.1909 166.157 76.8328C166.081 77.4748 165.829 78.0829 165.427 78.5889C165.025 79.0949 164.49 79.4786 163.882 79.697V79.697Z" fill="#FFB6B6"/>
<path d="M137.52 143.178C141.434 149.253 121.76 156.962 114.211 153.867C112.889 153.325 108.341 151.535 111.45 149.053C114.558 146.572 111.089 146.222 111.007 144.607C110.952 143.527 111.788 141.157 110.916 141.259C110.044 141.36 109.024 139.867 110.923 139.224C112.822 138.581 110.943 137.995 110.96 137.385C111.141 130.726 116.247 120.135 116.247 120.135L107.047 143.667C107.047 143.667 107.115 147.738 105.942 146.494C104.769 145.25 104.854 149.276 104.854 149.276C104.854 149.276 103.11 150.495 104.113 151.173C105.116 151.851 103.033 153.935 103.033 153.935L98.172 153.588C98.172 153.588 98.2481 149.975 99.078 149.176C99.908 148.376 99.5003 147.119 99.5003 147.119C99.5003 147.119 101.661 145.205 100.212 143.651C98.3493 141.652 105.142 107.895 107.486 108.229C107.818 106.615 108.589 105.124 109.714 103.921C110.84 102.718 112.275 101.85 113.863 101.413L119.113 99.9662L120.045 96.2652H127.437L128.725 98.6971L134.345 101.235C135.403 99.7403 136.194 98.1654 140.529 97.6548C140.529 97.6548 152.21 87.0207 151.639 86.1904C151.069 85.36 152.88 83.416 152.88 83.416C152.88 83.416 154.426 82.9096 153.554 82.6392C152.681 82.3689 154.33 81.7437 154.33 81.7437C154.33 81.7437 155.858 81.3421 155.137 80.8133C154.417 80.2844 157.542 79.937 157.542 79.937L161.596 83.247L160.776 84.6373C160.776 84.6373 161.276 86.5304 160.624 85.8393C159.972 85.1481 159.849 87.1538 159.849 87.1538C159.849 87.1538 159.516 89.3501 157.542 90.0118C155.567 90.6736 154.07 96.96 154.07 96.96C149.413 103.019 143.917 107.745 137.405 110.856C139.943 113.771 137.52 143.178 137.52 143.178Z" fill="#4265D6"/>
<path d="M123.19 94.0992C127.234 94.0992 130.512 90.8193 130.512 86.7733C130.512 82.7272 127.234 79.4473 123.19 79.4473C119.147 79.4473 115.869 82.7272 115.869 86.7733C115.869 90.8193 119.147 94.0992 123.19 94.0992Z" fill="#FFB6B6"/>
<path d="M115.609 87.5716C115.841 89.1635 117.197 91.3846 116.879 91.3846C116.562 91.3846 114.304 84.822 116.562 84.3941C118.2 84.0837 118.566 84.356 120.096 83.6919L119.88 83.8952C120.893 84.6324 122.303 84.178 123.459 83.6982C124.618 83.2216 126.025 82.7672 127.041 83.5012C127.679 83.9619 127.949 84.7627 128.346 85.4427C128.743 86.1258 129.477 86.7709 130.232 86.5612C130.839 86.3927 131.188 85.7127 131.185 85.0836C131.182 84.4545 130.363 83.856 130.639 83.2915C131.456 81.6187 130.721 80.4785 128.94 79.6914C128.292 79.5929 127.644 79.4922 126.997 79.3895C127.336 78.919 127.748 78.5051 128.216 78.163C128.018 77.6553 127.676 77.2167 127.232 76.9015C126.714 76.5933 126.073 76.6155 125.472 76.6473C124.132 76.7172 122.793 76.7871 121.455 76.857C120.465 76.9079 119.439 76.9682 118.553 77.4226C117.448 77.9914 116.724 79.1003 116.197 80.2284C115.015 82.764 115.203 84.804 115.609 87.5716Z" fill="#2F2E41"/>
<path d="M85.1526 222.507L157.158 222.605C157.258 222.605 157.354 222.565 157.425 222.494C157.496 222.423 157.536 222.327 157.536 222.226C157.536 222.126 157.496 222.03 157.425 221.959C157.354 221.888 157.258 221.848 157.158 221.848L85.1526 221.75C85.0523 221.75 84.9561 221.79 84.8852 221.861C84.8143 221.932 84.7745 222.028 84.7745 222.129C84.7745 222.229 84.8143 222.325 84.8852 222.396C84.9561 222.467 85.0523 222.507 85.1526 222.507V222.507Z" fill="#CACACA"/>
<path d="M59.1101 189.527C59.2429 188.614 58.2873 187.72 56.9758 187.529C55.6644 187.338 54.4936 187.923 54.3608 188.836C54.2281 189.749 55.1837 190.644 56.4951 190.834C57.8066 191.025 58.9774 190.44 59.1101 189.527Z" fill="#E6E6E6"/>
<path d="M74.7247 188.002C74.8574 187.089 73.9018 186.195 72.5904 186.004C71.2789 185.813 70.1081 186.398 69.9754 187.311C69.8427 188.224 70.7982 189.119 72.1097 189.31C73.4212 189.501 74.5919 188.915 74.7247 188.002Z" fill="#3F3D56"/>
<path d="M54.8343 176.878C54.9671 175.965 54.0115 175.07 52.7001 174.879C51.3886 174.688 50.2178 175.273 50.0851 176.186C49.9523 177.099 50.9079 177.994 52.2194 178.185C53.5308 178.376 54.7016 177.791 54.8343 176.878Z" fill="#FF6584"/>
<path d="M48.0495 171.697C48.0558 170.859 47.5886 170.176 47.006 170.171C46.4233 170.167 45.9458 170.843 45.9395 171.681C45.9332 172.519 46.4004 173.202 46.983 173.206C47.5657 173.211 48.0431 172.535 48.0495 171.697Z" fill="#E6E6E6"/>
<path d="M45.7486 162.046C45.7549 161.208 45.2877 160.525 44.7051 160.521C44.1224 160.516 43.6449 161.192 43.6386 162.03C43.6323 162.868 44.0995 163.551 44.6821 163.556C45.2648 163.56 45.7422 162.884 45.7486 162.046Z" fill="#3F3D56"/>
<path d="M63.6411 179.03C63.6475 178.192 63.1803 177.509 62.5976 177.505C62.015 177.501 61.5375 178.176 61.5312 179.015C61.5248 179.853 61.9921 180.536 62.5747 180.54C63.1573 180.544 63.6348 179.869 63.6411 179.03Z" fill="#E6E6E6"/>
<path d="M56.0955 182.8C56.1018 181.962 55.6346 181.279 55.052 181.275C54.4693 181.27 53.9919 181.946 53.9855 182.784C53.9792 183.622 54.4464 184.305 55.029 184.31C55.6117 184.314 56.0891 183.638 56.0955 182.8Z" fill="#FF6584"/>
<path d="M66.5993 189.768C66.6056 188.93 66.1384 188.247 65.5558 188.243C64.9731 188.238 64.4956 188.914 64.4893 189.752C64.483 190.59 64.9502 191.273 65.5328 191.278C66.1155 191.282 66.5929 190.606 66.5993 189.768Z" fill="#3F3D56"/>
<path d="M179.145 140.593C179.278 139.681 178.322 138.786 177.011 138.595C175.699 138.404 174.529 138.989 174.396 139.902C174.263 140.815 175.219 141.71 176.53 141.901C177.842 142.092 179.012 141.506 179.145 140.593Z" fill="#E6E6E6"/>
<path d="M194.76 139.069C194.892 138.156 193.937 137.261 192.625 137.07C191.314 136.879 190.143 137.464 190.01 138.377C189.878 139.29 190.833 140.185 192.145 140.376C193.456 140.567 194.627 139.982 194.76 139.069Z" fill="#3F3D56"/>
<path d="M174.869 127.944C175.002 127.031 174.046 126.137 172.735 125.946C171.423 125.755 170.253 126.34 170.12 127.253C169.987 128.166 170.943 129.061 172.254 129.251C173.566 129.442 174.736 128.857 174.869 127.944Z" fill="#FF6584"/>
<path d="M168.084 122.763C168.091 121.925 167.624 121.242 167.041 121.237C166.458 121.233 165.981 121.909 165.974 122.747C165.968 123.585 166.435 124.268 167.018 124.272C167.601 124.277 168.078 123.601 168.084 122.763Z" fill="#E6E6E6"/>
<path d="M165.784 113.112C165.79 112.274 165.323 111.591 164.74 111.587C164.157 111.582 163.68 112.258 163.674 113.096C163.667 113.934 164.134 114.617 164.717 114.622C165.3 114.626 165.777 113.95 165.784 113.112Z" fill="#3F3D56"/>
<path d="M183.676 130.097C183.682 129.259 183.215 128.576 182.633 128.571C182.05 128.567 181.572 129.243 181.566 130.081C181.56 130.919 182.027 131.602 182.61 131.606C183.192 131.611 183.67 130.935 183.676 130.097Z" fill="#E6E6E6"/>
<path d="M176.13 133.867C176.137 133.029 175.67 132.346 175.087 132.341C174.504 132.337 174.027 133.013 174.021 133.851C174.014 134.689 174.481 135.372 175.064 135.376C175.647 135.381 176.124 134.705 176.13 133.867Z" fill="#FF6584"/>
<path d="M186.634 140.834C186.641 139.996 186.173 139.313 185.591 139.309C185.008 139.304 184.531 139.98 184.524 140.818C184.518 141.656 184.985 142.339 185.568 142.344C186.15 142.348 186.628 141.672 186.634 140.834Z" fill="#3F3D56"/>
<path d="M121.033 50.0341C121.166 49.1212 120.21 48.2263 118.899 48.0354C117.587 47.8445 116.416 48.4297 116.284 49.3426C116.151 50.2555 117.106 51.1504 118.418 51.3413C119.729 51.5323 120.9 50.947 121.033 50.0341Z" fill="white"/>
<path d="M136.647 48.5094C136.78 47.5965 135.825 46.7017 134.513 46.5108C133.202 46.3198 132.031 46.9051 131.898 47.818C131.765 48.7309 132.721 49.6257 134.032 49.8167C135.344 50.0076 136.515 49.4223 136.647 48.5094Z" fill="#3F3D56"/>
<path d="M116.757 37.3849C116.89 36.472 115.934 35.5772 114.623 35.3862C113.311 35.1953 112.141 35.7806 112.008 36.6935C111.875 37.6064 112.831 38.5012 114.142 38.6922C115.454 38.8831 116.624 38.2978 116.757 37.3849Z" fill="#FF6584"/>
<path d="M109.972 32.2036C109.979 31.3655 109.511 30.6825 108.929 30.6781C108.346 30.6737 107.869 31.3495 107.862 32.1876C107.856 33.0257 108.323 33.7087 108.906 33.7131C109.488 33.7175 109.966 33.0416 109.972 32.2036Z" fill="#E6E6E6"/>
<path d="M107.671 22.5529C107.678 21.7148 107.21 21.0319 106.628 21.0275C106.045 21.0231 105.568 21.6989 105.561 22.537C105.555 23.375 106.022 24.058 106.605 24.0624C107.188 24.0668 107.665 23.391 107.671 22.5529Z" fill="#3F3D56"/>
<path d="M125.564 39.5375C125.57 38.6995 125.103 38.0165 124.52 38.0121C123.938 38.0077 123.46 38.6835 123.454 39.5216C123.448 40.3597 123.915 41.0426 124.497 41.047C125.08 41.0515 125.558 40.3756 125.564 39.5375Z" fill="#E6E6E6"/>
<path d="M118.018 43.3073C118.025 42.4692 117.557 41.7863 116.975 41.7819C116.392 41.7775 115.915 42.4533 115.908 43.2914C115.902 44.1294 116.369 44.8124 116.952 44.8168C117.535 44.8212 118.012 44.1454 118.018 43.3073Z" fill="#FF6584"/>
<path d="M128.522 50.2749C128.528 49.4368 128.061 48.7538 127.479 48.7494C126.896 48.745 126.418 49.4208 126.412 50.2589C126.406 51.097 126.873 51.7799 127.456 51.7843C128.038 51.7888 128.516 51.1129 128.522 50.2749Z" fill="#3F3D56"/>
</svg>
