<svg width="292" height="72" viewBox="0 0 292 72" fill="none" xmlns="http://www.w3.org/2000/svg">
<path d="M103.158 19.7368H114.511V64.323H103.158V58.6894C101.713 60.6209 99.824 62.1375 97.4919 63.2392C95.1526 64.3409 92.6166 64.8917 89.8838 64.8917C86.3927 64.8917 83.3058 64.1513 80.6232 62.6705C77.9405 61.1968 75.8372 59.0256 74.3135 56.1569C72.7825 53.281 72.0171 49.858 72.0171 45.8876V19.7368H83.2844V44.278C83.2844 47.8263 84.1679 50.5519 85.9349 52.4548C87.709 54.3577 90.1234 55.3092 93.1781 55.3092C96.2972 55.3092 98.7402 54.3577 100.507 52.4548C102.274 50.5519 103.158 47.8263 103.158 44.278V19.7368ZM167.07 41.0588C167.07 42.6684 166.959 44.117 166.737 45.4047H134.148C134.413 48.6239 135.54 51.1492 137.528 52.9806C139.517 54.7977 141.957 55.7062 144.847 55.7062C149.032 55.7062 152.011 53.9106 153.785 50.3194H165.933C164.645 54.6117 162.177 58.1385 158.528 60.8999C154.88 63.6613 150.402 65.042 145.094 65.042C140.801 65.042 136.952 64.0905 133.547 62.1876C130.135 60.2847 127.477 57.5877 125.574 54.0966C123.671 50.6127 122.72 46.5922 122.72 42.0352C122.72 37.421 123.657 33.3683 125.531 29.8773C127.413 26.3862 130.042 23.7035 133.418 21.8292C136.802 19.9478 140.694 19.007 145.094 19.007C149.329 19.007 153.124 19.9227 156.479 21.7541C159.834 23.5712 162.438 26.1573 164.291 29.5125C166.144 32.8676 167.07 36.7164 167.07 41.0588M134.223 37.8395H155.395C155.338 34.9494 154.29 32.6315 152.251 30.886C150.212 29.1404 147.719 28.2677 144.772 28.2677C141.982 28.2677 139.635 29.1119 137.732 30.8002C135.822 32.4885 134.652 34.8349 134.223 37.8395V37.8395ZM192.33 65.042C188.682 65.042 185.409 64.3874 182.512 63.0782C179.614 61.7619 177.322 59.9771 175.633 57.7236C173.945 55.4701 173.018 52.9735 172.854 50.2335H184.207C184.422 51.9576 185.266 53.3812 186.74 54.5044C188.213 55.6347 190.052 56.1998 192.255 56.1998C194.401 56.1998 196.079 55.767 197.288 54.9014C198.49 54.0501 199.091 52.952 199.091 51.6071C199.091 50.1548 198.354 49.0675 196.88 48.3449C195.406 47.6224 193.06 46.8319 189.841 45.9734C186.514 45.1722 183.792 44.3388 181.675 43.4732C179.55 42.6147 177.726 41.302 176.202 39.535C174.671 37.768 173.906 35.3822 173.906 32.3776C173.906 29.9023 174.617 27.6489 176.041 25.6172C177.457 23.5784 179.496 21.9687 182.158 20.7884C184.812 19.6008 187.934 19.007 191.525 19.007C196.841 19.007 201.079 20.3377 204.241 22.9989C207.411 25.653 209.156 29.2335 209.478 33.7404H198.694C198.536 31.9734 197.799 30.5641 196.483 29.5125C195.167 28.468 193.411 27.9458 191.214 27.9458C189.168 27.9458 187.598 28.3213 186.503 29.0725C185.402 29.8236 184.851 30.8717 184.851 32.2166C184.851 33.7189 185.602 34.8564 187.104 35.629C188.607 36.4088 190.939 37.2028 194.101 38.0112C197.32 38.8124 199.978 39.6423 202.074 40.5007C204.163 41.3592 205.973 42.6863 207.504 44.4819C209.034 46.2846 209.825 48.6597 209.875 51.6071C209.875 54.1824 209.167 56.4896 207.75 58.5284C206.327 60.5672 204.288 62.1626 201.634 63.3143C198.98 64.4661 195.879 65.042 192.33 65.042ZM242.228 28.9973H232.259V50.5662C232.259 52.0685 232.621 53.1523 233.343 53.8176C234.066 54.49 235.285 54.8263 237.002 54.8263H242.228V64.323H235.146C225.653 64.323 220.906 59.7088 220.906 50.4803V28.9973H215.595V19.7368H220.906V8.71627H232.259V19.7368H242.228V28.9973ZM258.893 33.2575C253.528 30.4675 250.845 26.1502 250.845 20.3055C250.845 17.4082 251.582 14.7648 253.056 12.3754C254.529 9.98604 256.758 8.0796 259.741 6.65598C262.717 5.23237 266.351 4.52051 270.643 4.52051C274.936 4.52051 278.57 5.23237 281.546 6.65598C284.522 8.0796 286.75 9.98604 288.231 12.3754C289.705 14.7648 290.442 17.4082 290.442 20.3055C290.442 23.2529 289.715 25.8389 288.263 28.0638C286.818 30.2958 284.887 32.027 282.469 33.2575C285.423 34.5452 287.734 36.4231 289.401 38.8911C291.06 41.3592 291.89 44.2851 291.89 47.6689C291.89 51.3173 290.964 54.4936 289.111 57.1978C287.258 59.9091 284.722 61.9909 281.503 63.4431C278.284 64.8882 274.664 65.6107 270.643 65.6107C266.616 65.6107 263.007 64.8882 259.816 63.4431C256.625 61.9909 254.104 59.9091 252.251 57.1978C250.398 54.4936 249.472 51.3173 249.472 47.6689C249.472 44.2851 250.305 41.3449 251.972 38.8482C253.632 36.3587 255.939 34.4951 258.893 33.2575M279.496 21.9151C279.496 19.2825 278.706 17.24 277.125 15.7878C275.537 14.3427 273.376 13.6202 270.643 13.6202C267.961 13.6202 265.829 14.3427 264.248 15.7878C262.66 17.24 261.866 19.3075 261.866 21.9902C261.866 24.4082 262.685 26.3398 264.323 27.7848C265.961 29.2371 268.068 29.9631 270.643 29.9631C273.219 29.9631 275.336 29.2227 276.996 27.7419C278.663 26.2682 279.496 24.3259 279.496 21.9151M270.643 38.1615C267.589 38.1615 265.106 38.9412 263.196 40.5007C261.293 42.0603 260.342 44.2887 260.342 47.186C260.342 49.8687 261.268 52.0542 263.121 53.7425C264.967 55.4308 267.474 56.275 270.643 56.275C273.805 56.275 276.302 55.4165 278.133 53.6996C279.95 51.9826 280.859 49.8114 280.859 47.186C280.859 44.3388 279.922 42.1246 278.048 40.5436C276.166 38.9555 273.698 38.1615 270.643 38.1615V38.1615Z" fill="#272727"/>
<path d="M45.3336 71.1745C41.8401 68.1691 37.3112 66.3335 32.355 66.2757C32.2747 66.2747 32.1942 66.2743 32.1137 66.2743C27.0632 66.2743 22.4438 68.1203 18.8937 71.1745C14.7107 69.7336 10.8372 67.628 7.39941 64.9838C9.13991 62.9914 11.1174 61.2114 13.288 59.6877C18.6166 55.9471 25.1087 53.7515 32.1137 53.7515C33.2537 53.7515 34.3802 53.8096 35.4903 53.9231C41.3973 54.5271 46.8402 56.6985 51.3965 60.0145C53.3882 61.464 55.2104 63.1322 56.8279 64.9838C53.3901 67.628 49.5166 69.7336 45.3336 71.1745H45.3336Z" fill="#4265D6"/>
<path d="M4.27877 49.781C1.42625 44.8121 0 39.1684 0 32.8499C0 26.5314 1.42625 20.8724 4.27877 15.8729C7.13128 10.8733 11.0573 6.97788 16.0569 4.18672C21.0565 1.39556 26.6234 0 32.7579 0C39.9965 0 46.2843 1.76361 51.6213 5.29091C56.9583 8.8182 60.6389 13.7718 62.6633 20.1516H62.6633H62.6633H47.8486C46.3763 17.4524 44.352 15.3974 41.7755 13.9865C39.1991 12.5755 36.1932 11.8701 32.7579 11.8701C28.9546 11.8701 25.5806 12.7289 22.6361 14.4466C19.6916 16.1642 17.3911 18.618 15.7348 21.8079C14.0785 24.9978 13.2504 28.6785 13.2504 32.8499C13.2504 37.144 14.0939 40.886 15.7808 44.0759C17.4678 47.2658 19.8142 49.7196 22.8201 51.4372C18.3588 52.6731 13.6915 54.404 10.0839 57.1071C7.81193 55.0068 5.87687 52.5648 4.27877 49.781V49.781Z" fill="#4265D6"/>
<path d="M43.3497 51.5291C44.0578 51.1074 44.7293 50.6321 45.3642 50.103C48.4927 47.4959 50.5478 43.8612 51.5293 39.1991H29.4453V29.3533H64.2276V40.5793C63.3688 45.0574 61.5284 49.1982 58.7066 53.0015C57.4971 54.6317 56.1383 56.1239 54.6301 57.4779C51.2826 54.882 47.4748 52.8513 43.3497 51.5291H43.3497Z" fill="#4265D6"/>
</svg>
