<svg width="86" height="21" viewBox="0 0 86 21" fill="none" xmlns="http://www.w3.org/2000/svg">
<path d="M30.2104 5.78017H33.5352V18.8376H30.2104V17.1877C29.7872 17.7534 29.2341 18.1975 28.5511 18.5202C27.866 18.8428 27.1233 19.0041 26.323 19.0041C25.3006 19.0041 24.3966 18.7873 23.611 18.3536C22.8253 17.922 22.2094 17.2862 21.7631 16.4461C21.3148 15.6038 21.0906 14.6014 21.0906 13.4386V5.78017H24.3903V12.9672C24.3903 14.0064 24.6491 14.8046 25.1666 15.3619C25.6861 15.9192 26.3932 16.1978 27.2878 16.1978C28.2012 16.1978 28.9167 15.9192 29.4342 15.3619C29.9517 14.8046 30.2104 14.0064 30.2104 12.9672V5.78017ZM48.9276 12.0245C48.9276 12.4959 48.8951 12.9201 48.8302 13.2972H39.2862C39.3637 14.24 39.6936 14.9795 40.2761 15.5159C40.8585 16.048 41.5729 16.3141 42.4193 16.3141C43.6449 16.3141 44.5175 15.7882 45.0371 14.7365H48.5945C48.2174 15.9935 47.4946 17.0264 46.4261 17.8351C45.3576 18.6438 44.0461 19.0481 42.4916 19.0481C41.2346 19.0481 40.1074 18.7695 39.1102 18.2122C38.1108 17.6549 37.3325 16.8651 36.7752 15.8427C36.218 14.8224 35.9393 13.645 35.9393 12.3104C35.9393 10.9591 36.2138 9.77227 36.7627 8.74989C37.3137 7.7275 38.0836 6.94186 39.0725 6.39295C40.0634 5.84196 41.2031 5.56645 42.4916 5.56645C43.7319 5.56645 44.8433 5.83462 45.8259 6.37095C46.8084 6.9031 47.571 7.66047 48.1137 8.64305C48.6563 9.62563 48.9276 10.7528 48.9276 12.0245M39.3082 11.0817H45.5085C45.4917 10.2353 45.1848 9.55648 44.5877 9.04529C43.9906 8.5341 43.2605 8.2785 42.3973 8.2785C41.5802 8.2785 40.8931 8.52573 40.3358 9.02016C39.7764 9.51459 39.4339 10.2018 39.3082 11.0817V11.0817ZM56.3252 19.0481C55.2567 19.0481 54.2982 18.8564 53.4498 18.473C52.6013 18.0875 51.9298 17.5648 51.4354 16.9049C50.9409 16.2449 50.6696 15.5138 50.6214 14.7114H53.9463C54.0091 15.2163 54.2564 15.6332 54.6879 15.9621C55.1195 16.2931 55.6579 16.4586 56.3032 16.4586C56.9317 16.4586 57.423 16.3319 57.7771 16.0784C58.1291 15.8291 58.305 15.5075 58.305 15.1136C58.305 14.6883 58.0892 14.3699 57.6577 14.1583C57.2261 13.9467 56.5389 13.7152 55.5961 13.4638C54.6219 13.2291 53.8248 12.985 53.2046 12.7315C52.5824 12.4801 52.0482 12.0957 51.6019 11.5782C51.1536 11.0607 50.9294 10.362 50.9294 9.48211C50.9294 8.75722 51.1379 8.09729 51.5548 7.50229C51.9696 6.9052 52.5667 6.43382 53.346 6.08813C54.1233 5.74035 55.0378 5.56645 56.0895 5.56645C57.6461 5.56645 58.8875 5.95614 59.8135 6.7355C60.7416 7.51277 61.2528 8.56134 61.3471 9.88123H58.1888C58.1427 9.36375 57.9269 8.95102 57.5414 8.64305C57.1559 8.33717 56.6416 8.18423 55.9984 8.18423C55.3992 8.18423 54.9393 8.29421 54.6188 8.51419C54.2962 8.73417 54.1348 9.0411 54.1348 9.43497C54.1348 9.87493 54.3548 10.2081 54.7948 10.4343C55.2347 10.6627 55.9177 10.8952 56.8437 11.132C57.7865 11.3666 58.5648 11.6096 59.1787 11.861C59.7904 12.1125 60.3205 12.5011 60.7688 13.0269C61.2172 13.5549 61.4487 14.2504 61.4633 15.1136C61.4633 15.8678 61.2559 16.5435 60.8411 17.1406C60.4242 17.7377 59.8271 18.2049 59.0498 18.5422C58.2726 18.8795 57.3644 19.0481 56.3252 19.0481ZM70.9382 8.49219H68.0187V14.8088C68.0187 15.2487 68.1245 15.5661 68.3361 15.761C68.5477 15.9579 68.9049 16.0564 69.4078 16.0564H70.9382V18.8376H68.8641C66.084 18.8376 64.6939 17.4863 64.6939 14.7836V8.49219H63.1383V5.78017H64.6939V2.55273H68.0187V5.78017H70.9382V8.49219ZM75.8186 9.73981C74.2473 8.92274 73.4617 7.65837 73.4617 5.94671C73.4617 5.09822 73.6775 4.32409 74.1091 3.62434C74.5406 2.9246 75.1932 2.36628 76.0669 1.94936C76.9384 1.53245 78.0027 1.32397 79.2597 1.32397C80.5168 1.32397 81.5811 1.53245 82.4526 1.94936C83.3241 2.36628 83.9768 2.9246 84.4104 3.62434C84.842 4.32409 85.0578 5.09822 85.0578 5.94671C85.0578 6.80988 84.8452 7.56723 84.4199 8.21879C83.9967 8.87245 83.431 9.37946 82.7229 9.73981C83.5881 10.1169 84.2648 10.6669 84.753 11.3897C85.239 12.1125 85.482 12.9693 85.482 13.9603C85.482 15.0288 85.2107 15.959 84.6681 16.7509C84.1255 17.5449 83.3828 18.1546 82.44 18.5799C81.4973 19.0031 80.4372 19.2147 79.2597 19.2147C78.0802 19.2147 77.0233 19.0031 76.0889 18.5799C75.1545 18.1546 74.416 17.5449 73.8734 16.7509C73.3307 15.959 73.0594 15.0288 73.0594 13.9603C73.0594 12.9693 73.3035 12.1083 73.7917 11.3771C74.2777 10.648 74.9534 10.1022 75.8186 9.73981M81.8524 6.4181C81.8524 5.64712 81.6209 5.04898 81.1579 4.62368C80.6928 4.20048 80.0601 3.98889 79.2597 3.98889C78.4741 3.98889 77.8498 4.20048 77.3868 4.62368C76.9217 5.04898 76.6891 5.65446 76.6891 6.4401C76.6891 7.14823 76.929 7.7139 77.4088 8.1371C77.8885 8.56239 78.5055 8.77503 79.2597 8.77503C80.014 8.77503 80.6341 8.55819 81.1202 8.12452C81.6083 7.69294 81.8524 7.12413 81.8524 6.4181M79.2597 11.176C78.3652 11.176 77.6382 11.4043 77.0788 11.861C76.5215 12.3178 76.2429 12.9704 76.2429 13.8189C76.2429 14.6045 76.5142 15.2445 77.0568 15.739C77.5973 16.2334 78.3316 16.4806 79.2597 16.4806C80.1858 16.4806 80.9169 16.2292 81.4533 15.7264C81.9854 15.2236 82.2515 14.5878 82.2515 13.8189C82.2515 12.985 81.977 12.3366 81.4281 11.8736C80.8771 11.4085 80.1543 11.176 79.2597 11.176V11.176Z" fill="white"/>
<path d="M13.2763 20.8439C12.2532 19.9638 10.9269 19.4262 9.47541 19.4093C9.45189 19.409 9.42833 19.4089 9.40473 19.4089C7.92566 19.4089 6.57286 19.9495 5.53317 20.8439C4.30815 20.4219 3.17377 19.8053 2.16699 19.0309C2.67671 18.4474 3.25584 17.9261 3.89151 17.4799C5.45204 16.3845 7.3533 15.7415 9.40473 15.7415C9.73861 15.7415 10.0685 15.7585 10.3936 15.7917C12.1235 15.9686 13.7175 16.6045 15.0519 17.5756C15.6351 18.0001 16.1688 18.4887 16.6425 19.0309C15.6357 19.8053 14.5013 20.4219 13.2763 20.8439H13.2763Z" fill="#4265D6"/>
<path d="M1.25307 14.5787C0.417689 13.1235 0 11.4707 0 9.62033C0 7.76991 0.417689 6.11264 1.25307 4.64848C2.08845 3.18432 3.23822 2.04352 4.70237 1.22611C6.16653 0.408699 7.79687 0 9.59338 0C11.7133 0 13.5547 0.516487 15.1177 1.54948C16.6806 2.58247 17.7585 4.03317 18.3514 5.90154H18.3514H18.3514H14.0128C13.5816 5.11107 12.9888 4.50923 12.2343 4.09603C11.4797 3.68284 10.5994 3.47625 9.59339 3.47625C8.47955 3.47625 7.49146 3.72775 6.62914 4.23078C5.76681 4.7338 5.09312 5.45241 4.60806 6.3866C4.123 7.32079 3.88047 8.3987 3.88047 9.62033C3.88047 10.8779 4.12749 11.9738 4.62153 12.9079C5.11557 13.8421 5.80274 14.5607 6.68303 15.0638C5.37649 15.4257 4.00966 15.9326 2.95316 16.7242C2.28778 16.1091 1.72108 15.394 1.25307 14.5787V14.5787Z" fill="#4265D6"/>
<path d="M12.6953 15.0906C12.9027 14.9671 13.0993 14.8278 13.2852 14.6729C14.2015 13.9094 14.8033 12.845 15.0907 11.4796H8.62329V8.59619H18.8095V11.8838C18.558 13.1953 18.0191 14.4079 17.1927 15.5218C16.8385 15.9992 16.4405 16.4362 15.9988 16.8327C15.0185 16.0725 13.9033 15.4778 12.6953 15.0906H12.6953Z" fill="#4265D6"/>
</svg>
