<svg width="25" height="27" viewBox="0 0 25 27" fill="none" xmlns="http://www.w3.org/2000/svg">
<path d="M12.5 8.56549C11.5322 8.56549 10.5861 8.85249 9.78136 9.39019C8.97664 9.92789 8.34944 10.6921 7.97906 11.5863C7.60869 12.4805 7.51178 13.4644 7.7006 14.4136C7.88941 15.3628 8.35547 16.2348 9.03983 16.9191C9.72419 17.6035 10.5961 18.0695 11.5454 18.2584C12.4946 18.4472 13.4785 18.3503 14.3727 17.9799C15.2668 17.6095 16.0311 16.9823 16.5688 16.1776C17.1065 15.3729 17.3935 14.4268 17.3935 13.4589C17.392 12.1616 16.8759 10.9178 15.9586 10.0004C15.0412 9.08301 13.7974 8.56697 12.5 8.56549ZM12.5 14.9877C12.1977 14.9877 11.9021 14.898 11.6507 14.73C11.3993 14.562 11.2034 14.3233 11.0877 14.044C10.972 13.7646 10.9417 13.4572 11.0007 13.1607C11.0597 12.8642 11.2053 12.5918 11.4191 12.378C11.6329 12.1642 11.9052 12.0186 12.2018 11.9596C12.4983 11.9006 12.8057 11.9309 13.085 12.0466C13.3644 12.1623 13.6031 12.3582 13.7711 12.6096C13.9391 12.861 14.0287 13.1566 14.0287 13.4589C14.0284 13.8643 13.8673 14.253 13.5807 14.5396C13.294 14.8262 12.9054 14.9874 12.5 14.9877Z" fill="white"/>
<path d="M23.7158 13.459C23.7123 12.0624 23.446 10.6789 22.9307 9.38089L25 8.18753L23.3176 5.27142L21.255 6.46703C19.4949 4.26481 16.9696 2.80672 14.1824 2.38336V0H10.8176V2.38336C8.0334 2.80685 5.51072 4.2632 3.75168 6.46254L1.68573 5.27142L0.00336469 8.18753L2.06931 9.37528C1.02922 11.9964 1.02922 14.9158 2.06931 17.537L0 18.7304L1.68237 21.6465L3.74495 20.4565C5.50604 22.6566 8.03125 24.1126 10.8176 24.5345V26.9179H14.1824V24.5345C16.9666 24.111 19.4893 22.6547 21.2483 20.4554L23.312 21.6476L24.9944 18.7315L22.9307 17.5426C23.446 16.2426 23.7123 14.8573 23.7158 13.459ZM12.5 21.31C10.9472 21.31 9.42929 20.8495 8.13819 19.9869C6.84709 19.1242 5.8408 17.898 5.24657 16.4634C4.65234 15.0288 4.49687 13.4502 4.7998 11.9273C5.10274 10.4043 5.85048 9.00541 6.94847 7.90742C8.04646 6.80943 9.44538 6.06169 10.9683 5.75875C12.4913 5.45582 14.0699 5.61129 15.5045 6.20552C16.9391 6.79975 18.1652 7.80604 19.0279 9.09714C19.8906 10.3882 20.3511 11.9062 20.3511 13.459C20.3484 15.5404 19.5204 17.5358 18.0486 19.0075C16.5768 20.4793 14.5814 21.3073 12.5 21.31Z" fill="white"/>
</svg>
