<svg width="45" height="45" viewBox="0 0 45 45" fill="none" xmlns="http://www.w3.org/2000/svg">
<path d="M32.75 35H29.625V29.7917C29.625 29.2391 29.4055 28.7092 29.0148 28.3185C28.6241 27.9278 28.0942 27.7083 27.5417 27.7083H19.2083C18.6558 27.7083 18.1259 27.9278 17.7352 28.3185C17.3445 28.7092 17.125 29.2391 17.125 29.7917V35H14V29.7917C14.0017 28.4108 14.5509 27.087 15.5273 26.1106C16.5037 25.1343 17.8275 24.585 19.2083 24.5833H27.5417C28.9225 24.585 30.2463 25.1343 31.2227 26.1106C32.1991 27.087 32.7483 28.4108 32.75 29.7917V35Z" fill="#F0F0F0"/>
<path d="M23.375 22.5C22.1389 22.5 20.9305 22.1334 19.9027 21.4467C18.8749 20.7599 18.0738 19.7838 17.6008 18.6418C17.1277 17.4997 17.0039 16.2431 17.2451 15.0307C17.4863 13.8183 18.0815 12.7047 18.9556 11.8306C19.8297 10.9565 20.9433 10.3613 22.1557 10.1201C23.3681 9.87894 24.6247 10.0027 25.7668 10.4758C26.9088 10.9488 27.8849 11.7499 28.5717 12.7777C29.2584 13.8055 29.625 15.0139 29.625 16.25C29.6233 17.9071 28.9643 19.4959 27.7926 20.6676C26.6209 21.8393 25.0321 22.4983 23.375 22.5ZM23.375 13.125C22.7569 13.125 22.1528 13.3083 21.6388 13.6517C21.1249 13.995 20.7244 14.4831 20.4879 15.0541C20.2514 15.6251 20.1895 16.2535 20.31 16.8597C20.4306 17.4659 20.7283 18.0227 21.1653 18.4597C21.6023 18.8968 22.1592 19.1944 22.7653 19.315C23.3715 19.4355 23.9999 19.3737 24.5709 19.1371C25.1419 18.9006 25.63 18.5001 25.9733 17.9862C26.3167 17.4723 26.5 16.8681 26.5 16.25C26.5 15.4212 26.1708 14.6263 25.5847 14.0403C24.9987 13.4542 24.2038 13.125 23.375 13.125Z" fill="#F0F0F0"/>
<rect opacity="0.32" width="45" height="45" rx="10" fill="#4265D6"/>
</svg>
